# xmcd CD database file
#
# Track frame offsets:
#	150
#	24495
#	42640
#	57419
#	70603
#	95727
#	119926
#	142730
#	152006
#	168874
#	192493
#	213753
#
# Disc length: 3163 seconds
#
# Revision: 0
# Processed by: cddbd v1.4PL0 Copyright (c) Steve Scherf et al.
# Submitted via: CDex 1.50beta9
#
DISCID=ab0c590c
DTITLE=Chako - Ebb and Flow
DYEAR=1994
DGENRE=New Age
TTITLE0=Silver screen
TTITLE1=Adolescence
TTITLE2=Blue rain
TTITLE3=A flock of birds
TTITLE4=The last goodbye
TTITLE5=A thread from clouds
TTITLE6=The old town
TTITLE7=Sunset
TTITLE8=An autumn breeze
TTITLE9=Broken flowers
TTITLE10=War scapes
TTITLE11=Ebb and flow
EXTD=YEAR: 1994
EXTT0=
EXTT1=
EXTT2=
EXTT3=
EXTT4=
EXTT5=
EXTT6=
EXTT7=
EXTT8=
EXTT9=
EXTT10=
EXTT11=
PLAYORDER=
